<?xml version="1.0" encoding="UTF-8" standalone="no"?>
<!DOCTYPE svg PUBLIC "-//W3C//DTD SVG 1.0//EN" "http://www.w3.org/TR/2001/PR-SVG-20010719/DTD/svg10.dtd">
<svg width="47cm" height="30cm" viewBox="59 100 923 588" xmlns="http://www.w3.org/2000/svg" xmlns:xlink="http://www.w3.org/1999/xlink">
  <line style="fill: none; fill-opacity:0; stroke-width: 3; stroke: #000000" x1="440" y1="140" x2="980" y2="140"/>
  <text font-size="12.8" style="fill: #000000;text-anchor:start;font-family:sans-serif;font-style:normal;font-weight:normal" x="434" y="96">
    <tspan x="434" y="96"></tspan>
  </text>
  <line style="fill: none; fill-opacity:0; stroke-width: 3; stroke: #000000" x1="440" y1="160" x2="980" y2="160"/>
  <text font-size="17.3172" style="fill: #000000;text-anchor:start;font-family:sans-serif;font-style:normal;font-weight:normal" x="420" y="160">
    <tspan x="420" y="160">N</tspan>
  </text>
  <line style="fill: none; fill-opacity:0; stroke-width: 3; stroke: #000000" x1="440" y1="180" x2="620" y2="180"/>
  <line style="fill: none; fill-opacity:0; stroke-width: 3; stroke: #000000" x1="760" y1="180" x2="980" y2="180"/>
  <path style="fill: none; fill-opacity:0; stroke-width: 1; stroke: #000000" d="M 580 220 L 580,239.8 C 591.5,237.325 603,234.85 603,247.225 C 603,259.6 580,262.075 580,254.65 C 580,247.225 603,249.7 603,262.075 C 603,274.45 580,276.925 580,269.5 C 580,262.075 603,264.55 603,276.925 C 603,289.3 580,291.775 580,284.35 C 580,276.925 603,279.4 603,291.775 C 603,304.15 585.75,301.675 580,299.2 L 580,319"/>
  <g>
    <line style="fill: none; fill-opacity:0; stroke-width: 1; stroke: #000000" x1="531" y1="220" x2="531" y2="254.435"/>
    <line style="fill: none; fill-opacity:0; stroke-width: 3; stroke: #000000" x1="520" y1="254.435" x2="542" y2="254.435"/>
    <polygon style="fill: #ffffff" points="531,254.435 520,284.565 542,284.565 "/>
    <polygon style="fill: none; fill-opacity:0; stroke-width: 1; stroke: #000000" points="531,254.435 520,284.565 542,284.565 "/>
    <line style="fill: none; fill-opacity:0; stroke-width: 1; stroke: #000000" x1="531" y1="284.565" x2="531" y2="319"/>
  </g>
  <g>
    <rect style="fill: #ffffff" x="60" y="140" width="276" height="475"/>
    <rect style="fill: none; fill-opacity:0; stroke-width: 1; stroke: #000000" x="60" y="140" width="276" height="475"/>
  </g>
  <text font-size="28.606" style="fill: #000000;text-anchor:start;font-family:sans-serif;font-style:normal;font-weight:normal" x="152" y="178.5">
    <tspan x="152" y="178.5">Arduino</tspan>
  </text>
  <g>
    <line style="fill: none; fill-opacity:0; stroke-width: 1; stroke: #000000" x1="580" y1="220" x2="536" y2="220"/>
    <path style="fill: #000000" d="M 531 220 C 531,218.625 532.375,217.25 533.75,217.25 C 535.125,217.25 536.5,218.625 536.5,220 C 536.5,221.375 535.125,222.75 533.75,222.75 C 532.375,222.75 531,221.375 531,220z"/>
    <line style="fill: none; fill-opacity:0; stroke-width: 1; stroke: #000000" x1="533.5" y1="225" x2="533.5" y2="215"/>
  </g>
  <g>
    <polygon style="fill: #ffffff" points="320,227.5 335,220 365,220 365,235 335,235 "/>
    <polygon style="fill: none; fill-opacity:0; stroke-width: 1; stroke: #000000" points="320,227.5 335,220 365,220 365,235 335,235 "/>
    <line style="fill: none; fill-opacity:0; stroke-width: 1; stroke: #000000" x1="365" y1="227.5" x2="380" y2="227.5"/>
  </g>
  <g>
    <line style="fill: none; fill-opacity:0; stroke-width: 1; stroke: #000000" x1="531" y1="220" x2="384.994" y2="227.252"/>
    <path style="fill: #000000" d="M 380 227.5 C 379.932,226.127 381.237,224.685 382.61,224.617 C 383.983,224.549 385.425,225.854 385.493,227.227 C 385.561,228.6 384.256,230.042 382.883,230.11 C 381.51,230.178 380.068,228.873 380,227.5z"/>
    <line style="fill: none; fill-opacity:0; stroke-width: 1; stroke: #000000" x1="382.745" y1="232.37" x2="382.249" y2="222.382"/>
  </g>
  <text font-size="17.3172" style="fill: #000000;text-anchor:start;font-family:sans-serif;font-style:normal;font-weight:normal" x="300" y="220">
    <tspan x="300" y="220">+5V</tspan>
  </text>
  <g>
    <polygon style="fill: #ffffff" points="322.418,445 330.418,441 346.418,441 346.418,449 330.418,449 "/>
    <polygon style="fill: none; fill-opacity:0; stroke-width: 1; stroke: #000000" points="322.418,445 330.418,441 346.418,441 346.418,449 330.418,449 "/>
    <line style="fill: none; fill-opacity:0; stroke-width: 1; stroke: #000000" x1="346.418" y1="445" x2="354.418" y2="445"/>
  </g>
  <g>
    <ellipse style="fill: #ffffff" cx="543.37" cy="468.913" rx="28.913" ry="28.913"/>
    <ellipse style="fill: none; fill-opacity:0; stroke-width: 1; stroke: #000000" cx="543.37" cy="468.913" rx="28.913" ry="28.913"/>
    <rect style="fill: #000000" x="536.141" y="447.228" width="3.61413" height="10.8424"/>
    <rect style="fill: none; fill-opacity:0; stroke-width: 1; stroke: #000000" x="536.141" y="447.228" width="3.61413" height="10.8424"/>
    <rect style="fill: #000000" x="536.141" y="463.492" width="3.61413" height="10.8424"/>
    <rect style="fill: none; fill-opacity:0; stroke-width: 1; stroke: #000000" x="536.141" y="463.492" width="3.61413" height="10.8424"/>
    <rect style="fill: #000000" x="536.141" y="479.755" width="3.61413" height="10.8424"/>
    <rect style="fill: none; fill-opacity:0; stroke-width: 1; stroke: #000000" x="536.141" y="479.755" width="3.61413" height="10.8424"/>
    <polyline style="fill: none; fill-opacity:0; stroke-width: 1; stroke: #000000" points="500,486.984 532.527,486.984 532.527,450.842 "/>
    <polyline style="fill: none; fill-opacity:0; stroke-width: 1; stroke: #000000" points="539.755,454.457 568.668,454.457 568.668,440 "/>
    <line style="fill: none; fill-opacity:0; stroke-width: 1; stroke: #000000" x1="539.755" y1="468.913" x2="583.125" y2="468.913"/>
    <polyline style="fill: none; fill-opacity:0; stroke-width: 1; stroke: #000000" points="539.755,483.37 568.668,483.37 568.668,497.826 "/>
    <polygon style="fill: #000000" points="546.984,466.022 561.44,468.913 546.984,471.804 "/>
    <polygon style="fill: none; fill-opacity:0; stroke-width: 1; stroke: #000000" points="546.984,466.022 561.44,468.913 546.984,471.804 "/>
  </g>
  <g>
    <line style="fill: none; fill-opacity:0; stroke-width: 1; stroke: #000000" x1="568.668" y1="440" x2="579.534" y2="323.978"/>
    <path style="fill: #000000" d="M 580 319 C 581.369,319.128 582.61,320.625 582.482,321.994 C 582.353,323.363 580.856,324.604 579.487,324.476 C 578.118,324.348 576.877,322.851 577.006,321.482 C 577.134,320.113 578.631,318.872 580,319z"/>
    <line style="fill: none; fill-opacity:0; stroke-width: 1; stroke: #000000" x1="574.789" y1="321.023" x2="584.745" y2="321.955"/>
  </g>
  <g>
    <line style="fill: none; fill-opacity:0; stroke-width: 1; stroke: #000000" x1="531" y1="319" x2="575" y2="319"/>
    <path style="fill: #000000" d="M 580 319 C 580,320.375 578.625,321.75 577.25,321.75 C 575.875,321.75 574.5,320.375 574.5,319 C 574.5,317.625 575.875,316.25 577.25,316.25 C 578.625,316.25 580,317.625 580,319z"/>
    <line style="fill: none; fill-opacity:0; stroke-width: 1; stroke: #000000" x1="577.5" y1="314" x2="577.5" y2="324"/>
  </g>
  <g>
    <line style="fill: none; fill-opacity:0; stroke-width: 1; stroke: #000000" x1="568.668" y1="497.826" x2="580.888" y2="473.386"/>
    <path style="fill: #000000" d="M 583.124 468.914 C 584.354,469.529 584.969,471.374 584.354,472.604 C 583.739,473.833 581.894,474.448 580.664,473.833 C 579.434,473.218 578.82,471.374 579.434,470.144 C 580.049,468.914 581.894,468.299 583.124,468.914z"/>
    <line style="fill: none; fill-opacity:0; stroke-width: 1; stroke: #000000" x1="577.534" y1="468.914" x2="586.478" y2="473.386"/>
  </g>
  <g>
    <rect style="fill: #000000" x="420" y="127.391" width="27.3913" height="4.1087"/>
    <rect style="fill: none; fill-opacity:0; stroke-width: 1; stroke: #000000" x="420" y="127.391" width="27.3913" height="4.1087"/>
    <line style="fill: none; fill-opacity:0; stroke-width: 1; stroke: #000000" x1="433.696" y1="100" x2="433.696" y2="127.391"/>
  </g>
  <g>
    <rect style="fill: #000000" x="180" y="609.217" width="29.2174" height="4.38261"/>
    <rect style="fill: none; fill-opacity:0; stroke-width: 1; stroke: #000000" x="180" y="609.217" width="29.2174" height="4.38261"/>
    <line style="fill: none; fill-opacity:0; stroke-width: 1; stroke: #000000" x1="194.609" y1="580" x2="194.609" y2="609.217"/>
  </g>
  <g>
    <line style="fill: none; fill-opacity:0; stroke-width: 1; stroke: #000000" x1="500" y1="486.984" x2="359.222" y2="446.385"/>
    <path style="fill: #000000" d="M 354.418 445 C 354.799,443.679 356.501,442.739 357.822,443.12 C 359.143,443.501 360.084,445.203 359.703,446.524 C 359.322,447.845 357.619,448.785 356.298,448.404 C 354.977,448.023 354.037,446.321 354.418,445z"/>
    <line style="fill: none; fill-opacity:0; stroke-width: 1; stroke: #000000" x1="355.435" y1="450.497" x2="358.206" y2="440.889"/>
  </g>
  <g>
    <line style="fill: none; fill-opacity:0; stroke-width: 1; stroke: #000000" x1="628.5" y1="220" x2="628.5" y2="249.1"/>
    <polyline style="fill: none; fill-opacity:0; stroke-width: 1; stroke: #000000" points="628.5,317 628.5,287.9 647.9,249.1 "/>
    <text font-size="12.8" style="fill: #000000;text-anchor:middle;font-family:sans-serif;font-style:normal;font-weight:normal" x="575.15" y="273.3">
      <tspan x="575.15" y="273.3"></tspan>
    </text>
  </g>
  <line style="fill: none; fill-opacity:0; stroke-width: 3; stroke: #000000" x1="620" y1="180" x2="628.5" y2="220"/>
  <line style="fill: none; fill-opacity:0; stroke-width: 3; stroke: #000000" x1="628.5" y1="317" x2="760" y2="320"/>
  <line style="fill: none; fill-opacity:0; stroke-width: 3; stroke: #000000" x1="760" y1="320" x2="760" y2="180"/>
  <line style="fill: none; fill-opacity:0; stroke-width: 1; stroke: #000000" x1="568.668" y1="497.826" x2="560" y2="680"/>
  <line style="fill: none; fill-opacity:0; stroke-width: 1; stroke: #000000" x1="560" y1="680" x2="427" y2="657"/>
  <line style="fill: none; fill-opacity:0; stroke-width: 1; stroke: #000000" x1="200" y1="680" x2="200" y2="620"/>
  <text font-size="17.3172" style="fill: #000000;text-anchor:start;font-family:sans-serif;font-style:normal;font-weight:normal" x="300" y="440">
    <tspan x="300" y="440">I/O</tspan>
    <tspan x="300" y="461.646"></tspan>
  </text>
  <text font-size="17.3172" style="fill: #000000;text-anchor:start;font-family:sans-serif;font-style:normal;font-weight:normal" x="420" y="180">
    <tspan x="420" y="180">L</tspan>
  </text>
  <text font-size="12.8" style="fill: #000000;text-anchor:start;font-family:sans-serif;font-style:normal;font-weight:normal" x="620" y="260">
    <tspan x="620" y="260">NO</tspan>
  </text>
  <text font-size="12.8" style="fill: #000000;text-anchor:start;font-family:sans-serif;font-style:normal;font-weight:normal" x="640" y="240">
    <tspan x="640" y="240">NC</tspan>
  </text>
  <text font-size="12.8" style="fill: #000000;text-anchor:start;font-family:sans-serif;font-style:normal;font-weight:normal" x="640" y="300">
    <tspan x="640" y="300">COM</tspan>
  </text>
  <text font-size="12.8" style="fill: #000000;text-anchor:start;font-family:sans-serif;font-style:normal;font-weight:normal" x="460" y="280">
    <tspan x="460" y="280">1N4007</tspan>
  </text>
  <text font-size="12.8" style="fill: #000000;text-anchor:start;font-family:sans-serif;font-style:normal;font-weight:normal" x="460" y="460">
    <tspan x="460" y="460">BS170</tspan>
  </text>
  <text font-size="12.8" style="fill: #000000;text-anchor:start;font-family:sans-serif;font-style:normal;font-weight:normal" x="220" y="600">
    <tspan x="220" y="600">GND</tspan>
  </text>
  <text font-size="17.3172" style="fill: #000000;text-anchor:start;font-family:sans-serif;font-style:normal;font-weight:normal" x="380" y="120">
    <tspan x="380" y="120">GND</tspan>
  </text>
  <text font-size="12.8" style="fill: #000000;text-anchor:start;font-family:sans-serif;font-style:normal;font-weight:normal" x="500" y="500">
    <tspan x="500" y="500">S</tspan>
  </text>
  <text font-size="12.8" style="fill: #000000;text-anchor:start;font-family:sans-serif;font-style:normal;font-weight:normal" x="580" y="440">
    <tspan x="580" y="440">G</tspan>
  </text>
  <text font-size="12.8" style="fill: #000000;text-anchor:start;font-family:sans-serif;font-style:normal;font-weight:normal" x="580" y="500">
    <tspan x="580" y="500">D</tspan>
  </text>
  <g>
    <line style="fill: none; fill-opacity:0; stroke-width: 1; stroke: #000000" x1="427" y1="465" x2="427" y2="513"/>
    <rect style="fill: #ffffff" x="417" y="513" width="20" height="96"/>
    <rect style="fill: none; fill-opacity:0; stroke-width: 1; stroke: #000000" x="417" y="513" width="20" height="96"/>
    <line style="fill: none; fill-opacity:0; stroke-width: 1; stroke: #000000" x1="427" y1="609" x2="427" y2="657"/>
  </g>
  <g>
    <line style="fill: none; fill-opacity:0; stroke-width: 1; stroke: #000000" x1="427" y1="657" x2="204.97" y2="681.453"/>
    <path style="fill: #000000" d="M 200 682 C 199.849,680.633 201.066,679.116 202.432,678.965 C 203.799,678.815 205.316,680.031 205.467,681.398 C 205.617,682.765 204.401,684.282 203.035,684.432 C 201.668,684.583 200.151,683.367 200,682z"/>
    <line style="fill: none; fill-opacity:0; stroke-width: 1; stroke: #000000" x1="203.032" y1="686.696" x2="201.938" y2="676.756"/>
  </g>
  <text font-size="12.8" style="fill: #000000;text-anchor:start;font-family:sans-serif;font-style:normal;font-weight:normal" x="441" y="564">
    <tspan x="441" y="564">10K</tspan>
  </text>
</svg>
